<?xml version="1.0" encoding="UTF-8" standalone="no"?>
<svg width="25px" height="25px" viewBox="0 0 25 25" version="1.1" xmlns="http://www.w3.org/2000/svg" xmlns:xlink="http://www.w3.org/1999/xlink" xmlns:sketch="http://www.bohemiancoding.com/sketch/ns">
    <!-- Generator: Sketch 3.2.2 (9983) - http://www.bohemiancoding.com/sketch -->
    <title>Shape</title>
    <desc>Created with Sketch.</desc>
    <defs></defs>
    <g id="Page-1" stroke="none" stroke-width="1" fill="white" fill-rule="evenodd" sketch:type="MSPage">
        <path d="M16.845964,3.02871094 C15.1600436,4.04643555 13.3759345,5.37563477 11.7259002,7.09499512 C10.6711159,8.19438477 9.82229578,9.26247559 9.13839706,10.2634033 L4.95739607,11.0681152 L0.047,16.1864502 L4.42594885,16.328418 L7.5097163,13.1164551 C6.42120232,15.4656738 6.32517007,17.0231689 6.32517007,17.0231689 L7.70468733,18.4585205 C7.70468733,18.4585205 9.24764928,18.3058105 11.5191859,17.1605957 L8.36948273,20.4374756 L8.50730788,25 L13.4199073,19.8847412 L14.1954316,15.5084717 C15.1659035,14.7999756 16.1921383,13.9204346 17.2359295,12.8340332 C18.8866669,11.1139404 20.1620653,9.25637207 21.1399206,7.50039063 C20.0623999,7.27209473 19.0743013,6.80488281 18.2944172,5.99482422 C17.5144628,5.1802002 17.0629448,4.15100098 16.845964,3.02871094 L16.845964,3.02871094 Z M18.4732383,2.12019043 C18.5905304,3.21882324 18.9409063,4.10441895 19.5228659,4.70759277 C20.1034427,5.31757812 20.9522159,5.6817627 22.0107037,5.80241699 C23.5573457,2.54694824 24.047,0 24.047,0 C24.047,0 21.6017052,0.509228516 18.4732383,2.12019043 Z M15.8597172,10.6608154 C16.9924364,10.6608154 17.9106867,9.70439247 17.9106867,8.52458496 C17.9106867,7.34477745 16.9924364,6.38835449 15.8597172,6.38835449 C14.726998,6.38835449 13.8087477,7.34477745 13.8087477,8.52458496 C13.8087477,9.70439247 14.726998,10.6608154 15.8597172,10.6608154 Z" id="Shape" fill="#FFFFFF" sketch:type="MSShapeGroup"></path>
    </g>
</svg>